<mxfile host="Electron" agent="Mozilla/5.0 (Windows NT 10.0; Win64; x64) AppleWebKit/537.36 (KHTML, like Gecko) draw.io/27.0.9 Chrome/134.0.6998.205 Electron/35.4.0 Safari/537.36" version="27.0.9">
  <diagram name="Page-1" id="HbkQRrbA2FyLjtyXONq2">
    <mxGraphModel dx="1226" dy="736" grid="1" gridSize="10" guides="1" tooltips="1" connect="1" arrows="1" fold="1" page="1" pageScale="1" pageWidth="4681" pageHeight="3300" math="0" shadow="0">
      <root>
        <mxCell id="0" />
        <mxCell id="1" parent="0" />
        <mxCell id="yx-luC_bGmeSl3ZEePEG-6" value="Customer Informartion" style="text;html=1;align=center;verticalAlign=middle;whiteSpace=wrap;rounded=0;" parent="1" vertex="1">
          <mxGeometry x="610" y="450" width="130" height="30" as="geometry" />
        </mxCell>
        <mxCell id="yx-luC_bGmeSl3ZEePEG-10" value="&lt;span style=&quot;font-size: 28px;&quot;&gt;&lt;b&gt;Data Integration&lt;/b&gt;&lt;/span&gt;" style="text;html=1;align=center;verticalAlign=middle;whiteSpace=wrap;rounded=0;" parent="1" vertex="1">
          <mxGeometry x="320" y="60" width="300" height="30" as="geometry" />
        </mxCell>
        <mxCell id="yx-luC_bGmeSl3ZEePEG-12" value="(How Tables are realted to one another)" style="text;html=1;align=center;verticalAlign=middle;whiteSpace=wrap;rounded=0;" parent="1" vertex="1">
          <mxGeometry x="560" y="60" width="300" height="30" as="geometry" />
        </mxCell>
        <mxCell id="yx-luC_bGmeSl3ZEePEG-13" value="&lt;span style=&quot;font-weight: 400; text-wrap-mode: wrap;&quot;&gt;crm_prd_info&lt;/span&gt;" style="shape=table;startSize=30;container=1;collapsible=1;childLayout=tableLayout;fixedRows=1;rowLines=0;fontStyle=1;align=center;resizeLast=1;html=1;rounded=1;fillColor=#dae8fc;strokeColor=#6c8ebf;" parent="1" vertex="1">
          <mxGeometry x="580" y="290" width="180" height="100" as="geometry" />
        </mxCell>
        <mxCell id="yx-luC_bGmeSl3ZEePEG-14" value="" style="shape=tableRow;horizontal=0;startSize=0;swimlaneHead=0;swimlaneBody=0;fillColor=none;collapsible=0;dropTarget=0;points=[[0,0.5],[1,0.5]];portConstraint=eastwest;top=0;left=0;right=0;bottom=1;" parent="yx-luC_bGmeSl3ZEePEG-13" vertex="1">
          <mxGeometry y="30" width="180" height="40" as="geometry" />
        </mxCell>
        <mxCell id="yx-luC_bGmeSl3ZEePEG-15" value="Join Key" style="shape=partialRectangle;connectable=0;fillColor=none;top=0;left=0;bottom=0;right=0;fontStyle=1;overflow=hidden;whiteSpace=wrap;html=1;" parent="yx-luC_bGmeSl3ZEePEG-14" vertex="1">
          <mxGeometry width="80" height="40" as="geometry">
            <mxRectangle width="80" height="40" as="alternateBounds" />
          </mxGeometry>
        </mxCell>
        <mxCell id="yx-luC_bGmeSl3ZEePEG-16" value="PK" style="shape=partialRectangle;connectable=0;fillColor=none;top=0;left=0;bottom=0;right=0;align=left;spacingLeft=6;fontStyle=5;overflow=hidden;whiteSpace=wrap;html=1;" parent="yx-luC_bGmeSl3ZEePEG-14" vertex="1">
          <mxGeometry x="80" width="100" height="40" as="geometry">
            <mxRectangle width="100" height="40" as="alternateBounds" />
          </mxGeometry>
        </mxCell>
        <mxCell id="yx-luC_bGmeSl3ZEePEG-17" value="" style="shape=tableRow;horizontal=0;startSize=0;swimlaneHead=0;swimlaneBody=0;fillColor=none;collapsible=0;dropTarget=0;points=[[0,0.5],[1,0.5]];portConstraint=eastwest;top=0;left=0;right=0;bottom=0;" parent="yx-luC_bGmeSl3ZEePEG-13" vertex="1">
          <mxGeometry y="70" width="180" height="30" as="geometry" />
        </mxCell>
        <mxCell id="yx-luC_bGmeSl3ZEePEG-18" value="prd_key" style="shape=partialRectangle;connectable=0;fillColor=none;top=0;left=0;bottom=0;right=0;editable=1;overflow=hidden;whiteSpace=wrap;html=1;" parent="yx-luC_bGmeSl3ZEePEG-17" vertex="1">
          <mxGeometry width="80" height="30" as="geometry">
            <mxRectangle width="80" height="30" as="alternateBounds" />
          </mxGeometry>
        </mxCell>
        <mxCell id="yx-luC_bGmeSl3ZEePEG-19" value="prd_id" style="shape=partialRectangle;connectable=0;fillColor=none;top=0;left=0;bottom=0;right=0;align=left;spacingLeft=6;overflow=hidden;whiteSpace=wrap;html=1;" parent="yx-luC_bGmeSl3ZEePEG-17" vertex="1">
          <mxGeometry x="80" width="100" height="30" as="geometry">
            <mxRectangle width="100" height="30" as="alternateBounds" />
          </mxGeometry>
        </mxCell>
        <mxCell id="yx-luC_bGmeSl3ZEePEG-26" value="Current &amp;amp; History Product Information" style="text;html=1;align=center;verticalAlign=middle;whiteSpace=wrap;rounded=0;" parent="1" vertex="1">
          <mxGeometry x="590" y="260" width="130" height="30" as="geometry" />
        </mxCell>
        <mxCell id="yx-luC_bGmeSl3ZEePEG-30" value="&lt;span style=&quot;font-weight: 400; text-wrap-mode: wrap;&quot;&gt;crm_sales_details&lt;/span&gt;" style="shape=table;startSize=30;container=1;collapsible=1;childLayout=tableLayout;fixedRows=1;rowLines=0;fontStyle=1;align=center;resizeLast=1;html=1;rounded=1;fillColor=#dae8fc;strokeColor=#6c8ebf;" parent="1" vertex="1">
          <mxGeometry x="270" y="350" width="180" height="130" as="geometry" />
        </mxCell>
        <mxCell id="yx-luC_bGmeSl3ZEePEG-31" value="" style="shape=tableRow;horizontal=0;startSize=0;swimlaneHead=0;swimlaneBody=0;fillColor=none;collapsible=0;dropTarget=0;points=[[0,0.5],[1,0.5]];portConstraint=eastwest;top=0;left=0;right=0;bottom=1;" parent="yx-luC_bGmeSl3ZEePEG-30" vertex="1">
          <mxGeometry y="30" width="180" height="40" as="geometry" />
        </mxCell>
        <mxCell id="yx-luC_bGmeSl3ZEePEG-32" value="PK" style="shape=partialRectangle;connectable=0;fillColor=none;top=0;left=0;bottom=0;right=0;fontStyle=1;overflow=hidden;whiteSpace=wrap;html=1;" parent="yx-luC_bGmeSl3ZEePEG-31" vertex="1">
          <mxGeometry width="80" height="40" as="geometry">
            <mxRectangle width="80" height="40" as="alternateBounds" />
          </mxGeometry>
        </mxCell>
        <mxCell id="yx-luC_bGmeSl3ZEePEG-33" value="Join Key" style="shape=partialRectangle;connectable=0;fillColor=none;top=0;left=0;bottom=0;right=0;align=left;spacingLeft=6;fontStyle=5;overflow=hidden;whiteSpace=wrap;html=1;" parent="yx-luC_bGmeSl3ZEePEG-31" vertex="1">
          <mxGeometry x="80" width="100" height="40" as="geometry">
            <mxRectangle width="100" height="40" as="alternateBounds" />
          </mxGeometry>
        </mxCell>
        <mxCell id="yx-luC_bGmeSl3ZEePEG-34" value="" style="shape=tableRow;horizontal=0;startSize=0;swimlaneHead=0;swimlaneBody=0;fillColor=none;collapsible=0;dropTarget=0;points=[[0,0.5],[1,0.5]];portConstraint=eastwest;top=0;left=0;right=0;bottom=0;" parent="yx-luC_bGmeSl3ZEePEG-30" vertex="1">
          <mxGeometry y="70" width="180" height="30" as="geometry" />
        </mxCell>
        <mxCell id="yx-luC_bGmeSl3ZEePEG-35" value="sls_ord_num" style="shape=partialRectangle;connectable=0;fillColor=none;top=0;left=0;bottom=0;right=0;editable=1;overflow=hidden;whiteSpace=wrap;html=1;" parent="yx-luC_bGmeSl3ZEePEG-34" vertex="1">
          <mxGeometry width="80" height="30" as="geometry">
            <mxRectangle width="80" height="30" as="alternateBounds" />
          </mxGeometry>
        </mxCell>
        <mxCell id="yx-luC_bGmeSl3ZEePEG-36" value="sls_prd_key" style="shape=partialRectangle;connectable=0;fillColor=none;top=0;left=0;bottom=0;right=0;align=left;spacingLeft=6;overflow=hidden;whiteSpace=wrap;html=1;" parent="yx-luC_bGmeSl3ZEePEG-34" vertex="1">
          <mxGeometry x="80" width="100" height="30" as="geometry">
            <mxRectangle width="100" height="30" as="alternateBounds" />
          </mxGeometry>
        </mxCell>
        <mxCell id="yx-luC_bGmeSl3ZEePEG-39" value="" style="shape=tableRow;horizontal=0;startSize=0;swimlaneHead=0;swimlaneBody=0;fillColor=none;collapsible=0;dropTarget=0;points=[[0,0.5],[1,0.5]];portConstraint=eastwest;top=0;left=0;right=0;bottom=0;" parent="yx-luC_bGmeSl3ZEePEG-30" vertex="1">
          <mxGeometry y="100" width="180" height="30" as="geometry" />
        </mxCell>
        <mxCell id="yx-luC_bGmeSl3ZEePEG-40" value="" style="shape=partialRectangle;connectable=0;fillColor=none;top=0;left=0;bottom=0;right=0;editable=1;overflow=hidden;whiteSpace=wrap;html=1;" parent="yx-luC_bGmeSl3ZEePEG-39" vertex="1">
          <mxGeometry width="80" height="30" as="geometry">
            <mxRectangle width="80" height="30" as="alternateBounds" />
          </mxGeometry>
        </mxCell>
        <mxCell id="yx-luC_bGmeSl3ZEePEG-41" value="sls_cust_id" style="shape=partialRectangle;connectable=0;fillColor=none;top=0;left=0;bottom=0;right=0;align=left;spacingLeft=6;overflow=hidden;whiteSpace=wrap;html=1;" parent="yx-luC_bGmeSl3ZEePEG-39" vertex="1">
          <mxGeometry x="80" width="100" height="30" as="geometry">
            <mxRectangle width="100" height="30" as="alternateBounds" />
          </mxGeometry>
        </mxCell>
        <mxCell id="yx-luC_bGmeSl3ZEePEG-37" value="Transactional Records about Sales &amp;amp; Orders" style="text;html=1;align=center;verticalAlign=middle;whiteSpace=wrap;rounded=0;" parent="1" vertex="1">
          <mxGeometry x="285" y="320" width="130" height="30" as="geometry" />
        </mxCell>
        <mxCell id="yx-luC_bGmeSl3ZEePEG-46" style="edgeStyle=orthogonalEdgeStyle;rounded=0;orthogonalLoop=1;jettySize=auto;html=1;exitX=1;exitY=0.5;exitDx=0;exitDy=0;entryX=0;entryY=0.5;entryDx=0;entryDy=0;" parent="1" source="yx-luC_bGmeSl3ZEePEG-39" target="yx-luC_bGmeSl3ZEePEG-51" edge="1">
          <mxGeometry relative="1" as="geometry">
            <mxPoint x="530" y="540" as="targetPoint" />
          </mxGeometry>
        </mxCell>
        <mxCell id="yx-luC_bGmeSl3ZEePEG-47" value="&lt;span style=&quot;font-weight: 400; text-wrap-mode: wrap;&quot;&gt;crm_cust_info&lt;/span&gt;" style="shape=table;startSize=30;container=1;collapsible=1;childLayout=tableLayout;fixedRows=1;rowLines=0;fontStyle=1;align=center;resizeLast=1;html=1;rounded=1;fillColor=#dae8fc;strokeColor=#6c8ebf;" parent="1" vertex="1">
          <mxGeometry x="580" y="480" width="180" height="100" as="geometry" />
        </mxCell>
        <mxCell id="yx-luC_bGmeSl3ZEePEG-48" value="" style="shape=tableRow;horizontal=0;startSize=0;swimlaneHead=0;swimlaneBody=0;fillColor=none;collapsible=0;dropTarget=0;points=[[0,0.5],[1,0.5]];portConstraint=eastwest;top=0;left=0;right=0;bottom=1;" parent="yx-luC_bGmeSl3ZEePEG-47" vertex="1">
          <mxGeometry y="30" width="180" height="40" as="geometry" />
        </mxCell>
        <mxCell id="yx-luC_bGmeSl3ZEePEG-49" value="PK" style="shape=partialRectangle;connectable=0;fillColor=none;top=0;left=0;bottom=0;right=0;fontStyle=1;overflow=hidden;whiteSpace=wrap;html=1;" parent="yx-luC_bGmeSl3ZEePEG-48" vertex="1">
          <mxGeometry width="80" height="40" as="geometry">
            <mxRectangle width="80" height="40" as="alternateBounds" />
          </mxGeometry>
        </mxCell>
        <mxCell id="yx-luC_bGmeSl3ZEePEG-50" value="Join Key" style="shape=partialRectangle;connectable=0;fillColor=none;top=0;left=0;bottom=0;right=0;align=left;spacingLeft=6;fontStyle=5;overflow=hidden;whiteSpace=wrap;html=1;" parent="yx-luC_bGmeSl3ZEePEG-48" vertex="1">
          <mxGeometry x="80" width="100" height="40" as="geometry">
            <mxRectangle width="100" height="40" as="alternateBounds" />
          </mxGeometry>
        </mxCell>
        <mxCell id="yx-luC_bGmeSl3ZEePEG-51" value="" style="shape=tableRow;horizontal=0;startSize=0;swimlaneHead=0;swimlaneBody=0;fillColor=none;collapsible=0;dropTarget=0;points=[[0,0.5],[1,0.5]];portConstraint=eastwest;top=0;left=0;right=0;bottom=0;" parent="yx-luC_bGmeSl3ZEePEG-47" vertex="1">
          <mxGeometry y="70" width="180" height="30" as="geometry" />
        </mxCell>
        <mxCell id="yx-luC_bGmeSl3ZEePEG-52" value="cst_id" style="shape=partialRectangle;connectable=0;fillColor=none;top=0;left=0;bottom=0;right=0;editable=1;overflow=hidden;whiteSpace=wrap;html=1;" parent="yx-luC_bGmeSl3ZEePEG-51" vertex="1">
          <mxGeometry width="80" height="30" as="geometry">
            <mxRectangle width="80" height="30" as="alternateBounds" />
          </mxGeometry>
        </mxCell>
        <mxCell id="yx-luC_bGmeSl3ZEePEG-53" value="cst_key" style="shape=partialRectangle;connectable=0;fillColor=none;top=0;left=0;bottom=0;right=0;align=left;spacingLeft=6;overflow=hidden;whiteSpace=wrap;html=1;" parent="yx-luC_bGmeSl3ZEePEG-51" vertex="1">
          <mxGeometry x="80" width="100" height="30" as="geometry">
            <mxRectangle width="100" height="30" as="alternateBounds" />
          </mxGeometry>
        </mxCell>
        <mxCell id="yx-luC_bGmeSl3ZEePEG-54" value="erp_cust_az12" style="swimlane;fontStyle=0;childLayout=stackLayout;horizontal=1;startSize=30;horizontalStack=0;resizeParent=1;resizeParentMax=0;resizeLast=0;collapsible=1;marginBottom=0;whiteSpace=wrap;html=1;fillColor=#fff2cc;strokeColor=#d6b656;rounded=1;" parent="1" vertex="1">
          <mxGeometry x="970" y="610" width="200" height="60" as="geometry" />
        </mxCell>
        <mxCell id="yx-luC_bGmeSl3ZEePEG-55" value="cid" style="text;strokeColor=none;fillColor=none;align=left;verticalAlign=middle;spacingLeft=4;spacingRight=4;overflow=hidden;points=[[0,0.5],[1,0.5]];portConstraint=eastwest;rotatable=0;whiteSpace=wrap;html=1;" parent="yx-luC_bGmeSl3ZEePEG-54" vertex="1">
          <mxGeometry y="30" width="200" height="30" as="geometry" />
        </mxCell>
        <mxCell id="yx-luC_bGmeSl3ZEePEG-58" style="edgeStyle=orthogonalEdgeStyle;rounded=0;orthogonalLoop=1;jettySize=auto;html=1;entryX=1;entryY=0.5;entryDx=0;entryDy=0;" parent="1" source="yx-luC_bGmeSl3ZEePEG-55" target="yx-luC_bGmeSl3ZEePEG-51" edge="1">
          <mxGeometry relative="1" as="geometry" />
        </mxCell>
        <mxCell id="yx-luC_bGmeSl3ZEePEG-59" value="Extra Customer Information (Birthdate)" style="text;html=1;align=center;verticalAlign=middle;whiteSpace=wrap;rounded=0;" parent="1" vertex="1">
          <mxGeometry x="1000" y="580" width="130" height="30" as="geometry" />
        </mxCell>
        <mxCell id="yx-luC_bGmeSl3ZEePEG-60" value="erp_loc_a101" style="swimlane;fontStyle=0;childLayout=stackLayout;horizontal=1;startSize=30;horizontalStack=0;resizeParent=1;resizeParentMax=0;resizeLast=0;collapsible=1;marginBottom=0;whiteSpace=wrap;html=1;fillColor=#fff2cc;strokeColor=#d6b656;rounded=1;" parent="1" vertex="1">
          <mxGeometry x="970" y="420" width="200" height="60" as="geometry" />
        </mxCell>
        <mxCell id="yx-luC_bGmeSl3ZEePEG-61" value="cid" style="text;strokeColor=none;fillColor=none;align=left;verticalAlign=middle;spacingLeft=4;spacingRight=4;overflow=hidden;points=[[0,0.5],[1,0.5]];portConstraint=eastwest;rotatable=0;whiteSpace=wrap;html=1;" parent="yx-luC_bGmeSl3ZEePEG-60" vertex="1">
          <mxGeometry y="30" width="200" height="30" as="geometry" />
        </mxCell>
        <mxCell id="yx-luC_bGmeSl3ZEePEG-62" value="Location of Customer (Country)" style="text;html=1;align=center;verticalAlign=middle;whiteSpace=wrap;rounded=0;" parent="1" vertex="1">
          <mxGeometry x="1000" y="390" width="130" height="30" as="geometry" />
        </mxCell>
        <mxCell id="yx-luC_bGmeSl3ZEePEG-63" style="edgeStyle=orthogonalEdgeStyle;rounded=0;orthogonalLoop=1;jettySize=auto;html=1;exitX=0;exitY=0.5;exitDx=0;exitDy=0;entryX=1;entryY=0.5;entryDx=0;entryDy=0;" parent="1" source="yx-luC_bGmeSl3ZEePEG-61" target="yx-luC_bGmeSl3ZEePEG-51" edge="1">
          <mxGeometry relative="1" as="geometry" />
        </mxCell>
        <mxCell id="yx-luC_bGmeSl3ZEePEG-64" style="edgeStyle=orthogonalEdgeStyle;rounded=0;orthogonalLoop=1;jettySize=auto;html=1;" parent="1" source="yx-luC_bGmeSl3ZEePEG-34" target="yx-luC_bGmeSl3ZEePEG-17" edge="1">
          <mxGeometry relative="1" as="geometry" />
        </mxCell>
        <mxCell id="yx-luC_bGmeSl3ZEePEG-65" value="erp_px_cat_g1v2" style="swimlane;fontStyle=0;childLayout=stackLayout;horizontal=1;startSize=30;horizontalStack=0;resizeParent=1;resizeParentMax=0;resizeLast=0;collapsible=1;marginBottom=0;whiteSpace=wrap;html=1;fillColor=#fff2cc;strokeColor=#d6b656;rounded=1;" parent="1" vertex="1">
          <mxGeometry x="960" y="290" width="210" height="60" as="geometry" />
        </mxCell>
        <mxCell id="yx-luC_bGmeSl3ZEePEG-66" value="id" style="text;strokeColor=none;fillColor=none;align=left;verticalAlign=middle;spacingLeft=4;spacingRight=4;overflow=hidden;points=[[0,0.5],[1,0.5]];portConstraint=eastwest;rotatable=0;whiteSpace=wrap;html=1;" parent="yx-luC_bGmeSl3ZEePEG-65" vertex="1">
          <mxGeometry y="30" width="210" height="30" as="geometry" />
        </mxCell>
        <mxCell id="yx-luC_bGmeSl3ZEePEG-67" value="Product Categories" style="text;html=1;align=center;verticalAlign=middle;whiteSpace=wrap;rounded=0;" parent="1" vertex="1">
          <mxGeometry x="990" y="260" width="130" height="30" as="geometry" />
        </mxCell>
        <mxCell id="yx-luC_bGmeSl3ZEePEG-68" style="edgeStyle=orthogonalEdgeStyle;rounded=0;orthogonalLoop=1;jettySize=auto;html=1;exitX=0;exitY=0.5;exitDx=0;exitDy=0;entryX=0;entryY=0.5;entryDx=0;entryDy=0;" parent="1" source="yx-luC_bGmeSl3ZEePEG-66" target="yx-luC_bGmeSl3ZEePEG-17" edge="1">
          <mxGeometry relative="1" as="geometry">
            <mxPoint x="860" y="309.94" as="sourcePoint" />
            <mxPoint x="500" y="340" as="targetPoint" />
            <Array as="points">
              <mxPoint x="930" y="335" />
              <mxPoint x="930" y="175" />
              <mxPoint x="490" y="175" />
              <mxPoint x="490" y="375" />
            </Array>
          </mxGeometry>
        </mxCell>
        <mxCell id="yx-luC_bGmeSl3ZEePEG-70" value="" style="rounded=1;whiteSpace=wrap;html=1;fillColor=none;dashed=1;strokeColor=#6c8ebf;" parent="1" vertex="1">
          <mxGeometry x="230" y="145" width="570" height="555" as="geometry" />
        </mxCell>
        <mxCell id="yx-luC_bGmeSl3ZEePEG-71" value="" style="rounded=1;whiteSpace=wrap;html=1;fillColor=none;dashed=1;strokeColor=#d6b656;" parent="1" vertex="1">
          <mxGeometry x="840" y="150" width="430" height="560" as="geometry" />
        </mxCell>
        <mxCell id="yx-luC_bGmeSl3ZEePEG-72" value="&lt;b&gt;&lt;font style=&quot;font-size: 28px;&quot;&gt;CRM&lt;/font&gt;&lt;/b&gt;" style="text;html=1;align=center;verticalAlign=middle;whiteSpace=wrap;rounded=0;" parent="1" vertex="1">
          <mxGeometry x="450" y="120" width="60" height="30" as="geometry" />
        </mxCell>
        <mxCell id="yx-luC_bGmeSl3ZEePEG-73" value="&lt;span style=&quot;font-size: 28px;&quot;&gt;&lt;b&gt;ERP&lt;/b&gt;&lt;/span&gt;" style="text;html=1;align=center;verticalAlign=middle;whiteSpace=wrap;rounded=0;" parent="1" vertex="1">
          <mxGeometry x="1050" y="120" width="60" height="30" as="geometry" />
        </mxCell>
        <mxCell id="hQPlZ7Wfbl6p1SF5Q9H1-1" value="&lt;font style=&quot;font-size: 19px;&quot;&gt;&lt;b&gt;PRODUCT&lt;/b&gt;&lt;/font&gt;" style="text;html=1;strokeColor=#b85450;fillColor=#f8cecc;align=center;verticalAlign=middle;whiteSpace=wrap;overflow=hidden;fontSize=24;" vertex="1" parent="1">
          <mxGeometry x="960" y="340" width="210" height="30" as="geometry" />
        </mxCell>
        <mxCell id="hQPlZ7Wfbl6p1SF5Q9H1-2" value="&lt;font style=&quot;font-size: 19px;&quot;&gt;&lt;b&gt;PRODUCT&lt;/b&gt;&lt;/font&gt;" style="text;html=1;strokeColor=#b85450;fillColor=#f8cecc;align=center;verticalAlign=middle;whiteSpace=wrap;overflow=hidden;fontSize=24;" vertex="1" parent="1">
          <mxGeometry x="580" y="380" width="180" height="30" as="geometry" />
        </mxCell>
        <mxCell id="hQPlZ7Wfbl6p1SF5Q9H1-3" value="&lt;span style=&quot;font-size: 19px;&quot;&gt;&lt;b&gt;CUSTOMER&lt;/b&gt;&lt;/span&gt;" style="text;html=1;strokeColor=#82b366;fillColor=#d5e8d4;align=center;verticalAlign=middle;whiteSpace=wrap;overflow=hidden;fontSize=24;" vertex="1" parent="1">
          <mxGeometry x="970" y="470" width="200" height="30" as="geometry" />
        </mxCell>
        <mxCell id="hQPlZ7Wfbl6p1SF5Q9H1-4" value="&lt;span style=&quot;font-size: 19px;&quot;&gt;&lt;b&gt;CUSTOMER&lt;/b&gt;&lt;/span&gt;" style="text;html=1;strokeColor=#82b366;fillColor=#d5e8d4;align=center;verticalAlign=middle;whiteSpace=wrap;overflow=hidden;fontSize=24;" vertex="1" parent="1">
          <mxGeometry x="970" y="660" width="200" height="30" as="geometry" />
        </mxCell>
        <mxCell id="hQPlZ7Wfbl6p1SF5Q9H1-5" value="&lt;span style=&quot;font-size: 19px;&quot;&gt;&lt;b&gt;CUSTOMER&lt;/b&gt;&lt;/span&gt;" style="text;html=1;strokeColor=#82b366;fillColor=#d5e8d4;align=center;verticalAlign=middle;whiteSpace=wrap;overflow=hidden;fontSize=24;" vertex="1" parent="1">
          <mxGeometry x="580" y="570" width="180" height="30" as="geometry" />
        </mxCell>
        <mxCell id="hQPlZ7Wfbl6p1SF5Q9H1-6" value="&lt;span style=&quot;font-size: 19px;&quot;&gt;&lt;b&gt;SALES&lt;/b&gt;&lt;/span&gt;" style="text;html=1;align=center;verticalAlign=middle;whiteSpace=wrap;overflow=hidden;fontSize=24;fillColor=#e1d5e7;strokeColor=#9673a6;" vertex="1" parent="1">
          <mxGeometry x="270" y="470" width="180" height="30" as="geometry" />
        </mxCell>
      </root>
    </mxGraphModel>
  </diagram>
</mxfile>
